<?xml version="1.0" encoding="utf-8"?>
<!-- Generator: Adobe Illustrator 15.1.0, SVG Export Plug-In . SVG Version: 6.00 Build 0)  -->
<!DOCTYPE svg PUBLIC "-//W3C//DTD SVG 1.1//EN" "http://www.w3.org/Graphics/SVG/1.1/DTD/svg11.dtd">
<svg version="1.1" xmlns="http://www.w3.org/2000/svg" xmlns:xlink="http://www.w3.org/1999/xlink" x="0px" y="0px"
	 width="283.464px" height="147.704px" viewBox="0 0 283.464 147.704" style="enable-background:new 0 0 283.464 147.704;"
	 xml:space="preserve">
<style type="text/css">
<![CDATA[
	.st0{fill:#7ABAD6;}
	.st1{fill:#86A91A;}
	.st2{fill:#FFFFFF;}
	.st3{fill:#31454E;}
	.st4{fill:#368427;}
	.st5{fill:#00551F;}
	.st6{fill:#007324;}
]]>
</style>
<g id="bildmarke">
	<g>
		<g>
			<g>
				<polygon class="st0" points="0,60.589 0,98.096 110.422,118.292 110.422,86.545 				"/>
				<polygon class="st1" points="165.481,80.786 165.481,34.622 18.352,57.704 0,60.589 0,98.096 110.422,86.545 				"/>
				<polygon class="st4" points="0,98.096 110.422,86.545 0,60.589 				"/>
				<g>
					<g>
						<polygon class="st6" points="18.353,0 18.352,57.704 165.481,80.786 165.481,34.622 						"/>
					</g>
				</g>
				<polygon class="st5" points="18.352,57.704 165.481,80.786 165.481,34.622 				"/>
			</g>
			<g>
				<path class="st2" d="M38.879,23.083h11.466v3.127h-7.87v4.144h6.306v3.075h-6.306v4.248h7.87v3.127H38.879V23.083z"/>
				<path class="st2" d="M53.444,23.083h6.343l4.273,14.594h0.261V23.083h3.597v17.721H61.73L57.3,26.21h-0.26v14.594h-3.596V23.083
					z"/>
				<path class="st2" d="M71.443,23.083h11.466v3.127H75.04v4.144h6.306v3.075H75.04v4.248h7.869v3.127H71.443V23.083z"/>
				<path class="st2" d="M89.405,34.862v5.942H85.81V23.083h6.879c4.039,0,6.254,1.798,6.254,5.838c0,2.449-0.991,4.091-2.606,5.107
					l2.528,6.776H94.93l-2.059-5.942H89.405z M92.689,26.158h-3.284v5.629h3.336c1.798,0,2.528-1.251,2.528-2.815
					C95.269,27.279,94.409,26.158,92.689,26.158z"/>
				<path class="st2" d="M109.27,31.318h5.161v9.2c0,0-3.727,0.599-6.046,0.599c-5.786,0-7.245-3.232-7.245-9.173
					c0-6.463,1.876-9.173,7.115-9.173c2.736,0,6.176,0.729,6.176,0.729l-0.104,2.789c0,0-3.127-0.339-5.499-0.339
					c-3.075,0-3.987,1.017-3.987,5.994c0,4.717,0.651,6.046,3.882,6.046c1.069,0,2.164-0.104,2.164-0.104v-3.439h-1.616V31.318z"/>
				<path class="st2" d="M117.814,23.083h3.596v17.721h-3.596V23.083z"/>
				<path class="st2" d="M125.069,23.083h11.466v3.127h-7.871v4.144h6.307v3.075h-6.307v4.248h7.871v3.127h-11.466V23.083z"/>
				<path class="st2" d="M45.837,68.818c3.57,0,5.525,1.303,5.525,4.691c0,2.007-0.547,3.023-1.955,3.909
					c1.512,0.651,2.293,1.746,2.293,4.04c0,3.544-2.215,5.082-5.759,5.082h-7.062V68.818H45.837z M42.476,71.893v4.222h3.205
					c1.408,0,2.033-0.73,2.033-2.137c0-1.459-0.704-2.085-2.059-2.085H42.476z M42.476,79.138v4.326h3.283
					c1.486,0,2.294-0.442,2.294-2.188c0-1.46-0.86-2.137-2.294-2.137H42.476z"/>
				<path class="st2" d="M57.509,68.818h6.827l3.988,17.722h-3.597l-0.703-3.206h-6.203l-0.703,3.206h-3.596L57.509,68.818z
					 M58.5,80.207h4.847l-1.798-8.417h-1.25L58.5,80.207z"/>
				<path class="st2" d="M77.285,83.725c2.111,0,3.154-1.017,3.154-3.101V68.818h3.596v11.728c0,4.43-2.319,6.306-6.75,6.306
					c-4.43,0-6.749-1.876-6.749-6.306V68.818h3.597v11.806C74.132,82.734,75.174,83.725,77.285,83.725z"/>
				<path class="st2" d="M87.732,68.818h11.466v3.127h-7.869v4.144h6.306v3.075h-6.306v4.248h7.869v3.127H87.732V68.818z"/>
				<path class="st2" d="M102.167,68.818h6.343l4.274,14.594h0.26V68.818h3.597V86.54h-6.188l-4.43-14.594h-0.261V86.54h-3.596
					V68.818z"/>
				<path class="st2" d="M113.044,45.993h11.467v3.127h-7.87v4.144h6.307v3.075h-6.307v4.248h7.87v3.127h-11.467V45.993z"/>
				<path class="st2" d="M96.468,63.715V45.993h5.968c6.177,0,7.532,2.632,7.532,8.522c0,6.046-1.173,9.2-7.532,9.2H96.468z
					 M102.436,49.12h-2.371v11.467h2.371c3.492,0,3.831-2.137,3.831-6.072C106.267,50.632,105.928,49.12,102.436,49.12z"/>
				<path class="st2" d="M42.093,45.993l2.274,14.596h0.249l3.237-14.596h4.17l3.238,14.596h0.247l2.275-14.596h3.778l-3.388,17.722
					h-5.447l-2.788-13.189l-2.789,13.189h-5.447l-3.388-17.722H42.093z"/>
				<path class="st2" d="M63.903,45.993h11.466v3.127H67.5v4.144h6.306v3.075H67.5v4.248h7.87v3.127H63.903V45.993z"/>
				<path class="st2" d="M78.468,45.993h6.343l4.273,14.594h0.261V45.993h3.597v17.721h-6.188l-4.43-14.594h-0.26v14.594h-3.596
					V45.993z"/>
			</g>
		</g>
	</g>
</g>
<g id="Schrift_x2F_Wortmarke">
	<g>
		<path class="st3" d="M121.228,96.481h7.066v1.613h-5.221v3.841h4.34v1.613h-4.34v4.323h-1.845V96.481z"/>
		<path class="st3" d="M136.489,103.664c0,2.761-0.848,4.39-3.708,4.39c-2.843,0-3.708-1.629-3.708-4.39
			c0-2.693,0.932-4.29,3.708-4.29C135.558,99.375,136.489,100.971,136.489,103.664z M134.66,103.664c0-1.929-0.416-2.76-1.879-2.76
			c-1.463,0-1.879,0.831-1.879,2.76c0,1.929,0.332,2.86,1.879,2.86S134.66,105.593,134.66,103.664z"/>
		<path class="st3" d="M138.283,99.557h1.796v0.998c0,0,1.413-0.915,2.826-1.181v1.812c-1.513,0.3-2.811,0.881-2.811,0.881v5.804
			h-1.812V99.557z"/>
		<path class="st3" d="M150.053,101.27c0,0-1.962-0.266-2.96-0.266c-0.997,0-1.445,0.233-1.445,0.914
			c0,0.549,0.349,0.699,1.979,0.981c1.995,0.35,2.71,0.848,2.71,2.511c0,1.946-1.23,2.644-3.293,2.644
			c-1.146,0-3.075-0.366-3.075-0.366l0.066-1.513c0,0,1.995,0.266,2.843,0.266c1.197,0,1.663-0.249,1.663-0.981
			c0-0.582-0.282-0.765-1.929-1.03c-1.829-0.3-2.761-0.699-2.761-2.461c0-1.879,1.464-2.578,3.11-2.578
			c1.214,0,3.126,0.366,3.126,0.366L150.053,101.27z"/>
		<path class="st3" d="M157.684,99.69l-0.066,1.43c0,0-1.313-0.133-1.945-0.133c-1.729,0-2.129,0.698-2.129,2.611
			c0,2.128,0.35,2.843,2.146,2.843c0.632,0,1.945-0.133,1.945-0.133l0.05,1.447c0,0-1.679,0.299-2.527,0.299
			c-2.561,0-3.441-1.264-3.441-4.456c0-2.977,0.997-4.224,3.475-4.224C156.071,99.375,157.684,99.69,157.684,99.69z"/>
		<path class="st3" d="M159.428,107.872V96.099h1.812v3.891c0,0,1.23-0.615,2.278-0.615c2.312,0,2.876,1.313,2.876,4.041v4.457
			h-1.812v-4.407c0-1.663-0.199-2.478-1.479-2.478c-0.914,0-1.862,0.366-1.862,0.366v6.519H159.428z"/>
		<path class="st3" d="M175.339,99.557v8.314h-1.795v-0.516c0,0-1.215,0.698-2.245,0.698c-2.378,0-2.877-1.23-2.877-4.157v-4.34
			h1.812v4.357c0,1.846,0.116,2.527,1.413,2.527c0.998,0,1.896-0.433,1.896-0.433v-6.452H175.339z"/>
		<path class="st3" d="M177.533,107.872v-8.314h1.796v0.516c0,0,1.214-0.698,2.295-0.698c2.311,0,2.876,1.313,2.876,4.041v4.457
			h-1.796v-4.407c0-1.663-0.216-2.478-1.479-2.478c-0.964,0-1.879,0.433-1.879,0.433v6.452H177.533z"/>
		<path class="st3" d="M186.21,109.334c0-0.848,0.416-1.363,1.264-2.012c-0.349-0.232-0.549-0.698-0.549-1.214
			c0-0.382,0.599-1.33,0.599-1.33c-0.615-0.366-1.196-0.998-1.196-2.494c0-2.095,1.413-2.894,3.325-2.894
			c0.765,0,1.696,0.216,1.696,0.216l2.577-0.066v1.463l-1.38-0.083c0.216,0.282,0.448,0.715,0.448,1.364
			c0,2.261-1.18,2.876-3.392,2.876c-0.167,0-0.582-0.033-0.731-0.067c0,0-0.233,0.566-0.233,0.782c0,0.532,0.184,0.632,1.796,0.648
			c2.628,0.017,3.442,0.566,3.442,2.478c0,1.962-1.613,2.727-3.842,2.727C187.524,111.729,186.21,111.231,186.21,109.334z
			 M188.655,107.988c-0.466,0.382-0.665,0.665-0.665,1.18c0,0.765,0.549,1.081,2.062,1.081c1.347,0,2.012-0.332,2.012-1.147
			c0-0.898-0.433-0.998-1.779-1.015C189.769,108.087,188.655,107.988,188.655,107.988z M191.199,102.285
			c0-0.998-0.432-1.48-1.546-1.48c-1.064,0-1.53,0.482-1.53,1.48c0,1.014,0.466,1.479,1.53,1.479
			C190.767,103.764,191.199,103.298,191.199,102.285z"/>
		<path class="st3" d="M201.172,107.872h-1.796v-6.768h-0.964v-1.547h0.964v-0.532c0-2.394,0.616-3.109,2.346-3.109
			c0.565,0,1.796,0.166,1.796,0.166l-0.017,1.48c0,0-0.815-0.033-1.331-0.033c-0.765,0-0.998,0.366-0.998,1.513v0.516h2.195v1.547
			h-2.195V107.872z"/>
		<path class="st3" d="M211.581,99.557v8.314h-1.796v-0.516c0,0-1.214,0.698-2.245,0.698c-2.377,0-2.876-1.23-2.876-4.157v-4.34
			h1.812v4.357c0,1.846,0.116,2.527,1.413,2.527c0.998,0,1.896-0.433,1.896-0.433v-6.452H211.581z M205.594,97.778h1.729v-1.896
			h-1.729V97.778z M209.07,97.778h1.729v-1.896h-1.729V97.778z"/>
		<path class="st3" d="M213.774,99.557h1.796v0.998c0,0,1.413-0.915,2.826-1.181v1.812c-1.513,0.3-2.81,0.881-2.81,0.881v5.804
			h-1.812V99.557z"/>
		<path class="st3" d="M127.396,124.985l0.034,1.348c0,0-1.896,0.382-3.359,0.382c-2.494,0-3.458-1.329-3.458-4.257
			c0-3.043,1.314-4.423,3.608-4.423c2.329,0,3.492,1.214,3.492,3.808l-0.117,1.298h-5.155c0.017,1.329,0.516,1.994,1.896,1.994
			C125.649,125.134,127.396,124.985,127.396,124.985z M125.933,121.743c0-1.664-0.499-2.212-1.713-2.212
			c-1.23,0-1.779,0.615-1.795,2.212H125.933z"/>
		<path class="st3" d="M129.456,126.531v-8.313h1.796v0.516c0,0,1.214-0.699,2.294-0.699c2.311,0,2.876,1.313,2.876,4.041v4.456
			h-1.796v-4.407c0-1.662-0.216-2.477-1.48-2.477c-0.964,0-1.878,0.432-1.878,0.432v6.452H129.456z"/>
		<path class="st3" d="M144.917,124.985l0.033,1.348c0,0-1.896,0.382-3.359,0.382c-2.494,0-3.458-1.329-3.458-4.257
			c0-3.043,1.313-4.423,3.608-4.423c2.327,0,3.491,1.214,3.491,3.808l-0.116,1.298h-5.154c0.017,1.329,0.516,1.994,1.895,1.994
			C143.171,125.134,144.917,124.985,144.917,124.985z M143.455,121.743c0-1.664-0.5-2.212-1.713-2.212
			c-1.23,0-1.779,0.615-1.797,2.212H143.455z"/>
		<path class="st3" d="M146.977,118.218h1.796v0.998c0,0,1.414-0.915,2.827-1.181v1.812c-1.514,0.299-2.811,0.881-2.811,0.881v5.803
			h-1.812V118.218z"/>
		<path class="st3" d="M152.579,127.995c0-0.848,0.417-1.362,1.265-2.012c-0.35-0.232-0.549-0.699-0.549-1.214
			c0-0.381,0.599-1.329,0.599-1.329c-0.615-0.366-1.197-0.998-1.197-2.494c0-2.095,1.413-2.895,3.326-2.895
			c0.765,0,1.695,0.216,1.695,0.216l2.578-0.066v1.463l-1.381-0.082c0.216,0.282,0.449,0.714,0.449,1.364
			c0,2.261-1.181,2.876-3.392,2.876c-0.167,0-0.582-0.033-0.731-0.066c0,0-0.233,0.566-0.233,0.782c0,0.532,0.183,0.631,1.796,0.648
			c2.627,0.017,3.442,0.566,3.442,2.477c0,1.962-1.613,2.727-3.842,2.727C153.893,130.389,152.579,129.891,152.579,127.995z
			 M155.024,126.648c-0.466,0.383-0.665,0.666-0.665,1.181c0,0.765,0.549,1.08,2.062,1.08c1.348,0,2.012-0.331,2.012-1.146
			c0-0.898-0.432-0.998-1.779-1.015C156.137,126.748,155.024,126.648,155.024,126.648z M157.568,120.945
			c0-0.998-0.433-1.48-1.546-1.48c-1.064,0-1.53,0.482-1.53,1.48c0,1.014,0.466,1.479,1.53,1.479
			C157.135,122.424,157.568,121.959,157.568,120.945z"/>
		<path class="st3" d="M161.707,114.891h1.812v1.913h-1.812V114.891z M161.707,118.218h1.812v8.313h-1.812V118.218z"/>
		<path class="st3" d="M172.098,124.985l0.033,1.348c0,0-1.896,0.382-3.359,0.382c-2.494,0-3.458-1.329-3.458-4.257
			c0-3.043,1.313-4.423,3.608-4.423c2.327,0,3.492,1.214,3.492,3.808l-0.117,1.298h-5.154c0.017,1.329,0.516,1.994,1.896,1.994
			C170.352,125.134,172.098,124.985,172.098,124.985z M170.635,121.743c0-1.664-0.499-2.212-1.713-2.212
			c-1.23,0-1.779,0.615-1.796,2.212H170.635z"/>
		<path class="st3" d="M181.176,122.325c0,2.761-0.849,4.39-3.709,4.39c-2.843,0-3.708-1.629-3.708-4.39
			c0-2.694,0.931-4.29,3.708-4.29S181.176,119.63,181.176,122.325z M179.346,122.325c0-1.93-0.415-2.76-1.879-2.76
			c-1.463,0-1.879,0.831-1.879,2.76c0,1.929,0.333,2.86,1.879,2.86C179.014,125.185,179.346,124.253,179.346,122.325z"/>
		<path class="st3" d="M182.969,118.218h1.796v0.516c0,0,1.147-0.699,2.146-0.699c2.162,0,3.176,1.23,3.176,4.257
			c0,3.425-1.164,4.423-3.725,4.423c-0.682,0-1.479-0.133-1.58-0.15v3.542h-1.812V118.218z M184.782,120.113v4.905
			c0.084,0.017,0.882,0.134,1.464,0.134c1.546,0,1.995-0.815,1.995-2.86c0-1.945-0.615-2.644-1.646-2.644
			C185.713,119.648,184.782,120.113,184.782,120.113z"/>
		<path class="st3" d="M194.075,119.764v3.658c0,1.247,0.051,1.679,0.915,1.679c0.466,0,1.363-0.049,1.363-0.049l0.084,1.446
			c0,0-1.114,0.216-1.696,0.216c-1.879,0-2.462-0.699-2.462-3.092v-3.858h-1.063v-1.546h1.063v-2.411h1.796v2.411h2.295v1.546
			H194.075z"/>
		<path class="st3" d="M197.848,114.891h1.812v1.913h-1.812V114.891z M197.848,118.218h1.812v8.313h-1.812V118.218z"/>
		<path class="st3" d="M201.854,126.531v-8.313h1.796v0.516c0,0,1.182-0.699,2.163-0.699c1.014,0,1.646,0.25,2.11,0.815
			c0,0,1.514-0.815,2.861-0.815c2.261,0,2.876,1.214,2.876,4.041v4.456h-1.796v-4.407c0-1.662-0.2-2.477-1.413-2.477
			c-0.915,0-1.896,0.449-1.896,0.449c0.066,0.166,0.133,1.313,0.133,2.128v4.306h-1.796v-4.272c0-1.846-0.183-2.611-1.43-2.611
			c-0.932,0-1.797,0.432-1.797,0.432v6.452H201.854z"/>
		<path class="st3" d="M215.786,114.891h1.812v1.913h-1.812V114.891z M215.786,118.218h1.812v8.313h-1.812V118.218z"/>
		<path class="st3" d="M226.178,124.985l0.032,1.348c0,0-1.895,0.382-3.358,0.382c-2.494,0-3.459-1.329-3.459-4.257
			c0-3.043,1.313-4.423,3.608-4.423c2.328,0,3.492,1.214,3.492,3.808l-0.116,1.298h-5.155c0.017,1.329,0.516,1.994,1.896,1.994
			C224.432,125.134,226.178,124.985,226.178,124.985z M224.714,121.743c0-1.664-0.499-2.212-1.713-2.212
			c-1.23,0-1.779,0.615-1.796,2.212H224.714z"/>
		<path class="st3" d="M228.238,118.218h1.796v0.998c0,0,1.413-0.915,2.827-1.181v1.812c-1.513,0.299-2.811,0.881-2.811,0.881v5.803
			h-1.812V118.218z"/>
		<path class="st3" d="M236.417,119.764v3.658c0,1.247,0.051,1.679,0.915,1.679c0.466,0,1.363-0.049,1.363-0.049l0.084,1.446
			c0,0-1.115,0.216-1.696,0.216c-1.879,0-2.462-0.699-2.462-3.092v-3.858h-1.063v-1.546h1.063v-2.411h1.796v2.411h2.295v1.546
			H236.417z"/>
		<path class="st3" d="M246.577,124.985l0.032,1.348c0,0-1.895,0.382-3.358,0.382c-2.494,0-3.459-1.329-3.459-4.257
			c0-3.043,1.313-4.423,3.608-4.423c2.328,0,3.492,1.214,3.492,3.808l-0.116,1.298h-5.155c0.017,1.329,0.516,1.994,1.896,1.994
			C244.831,125.134,246.577,124.985,246.577,124.985z M245.113,121.743c0-1.664-0.499-2.212-1.713-2.212
			c-1.23,0-1.779,0.615-1.796,2.212H245.113z"/>
		<path class="st3" d="M125.866,139.206h3.243v5.787c-0.149,0.033-2.428,0.382-3.808,0.382c-3.625,0-4.556-2.096-4.556-5.87
			c0-3.99,1.097-5.886,4.489-5.886c1.746,0,3.875,0.448,3.875,0.448l-0.066,1.465c0,0-2.013-0.267-3.525-0.267
			c-2.278,0-2.86,1.031-2.86,4.239c0,3.094,0.481,4.257,2.81,4.257c0.749,0,1.613-0.099,1.813-0.149v-2.776h-1.414V139.206z"/>
		<path class="st3" d="M137.585,143.645l0.033,1.348c0,0-1.896,0.382-3.358,0.382c-2.494,0-3.458-1.329-3.458-4.257
			c0-3.043,1.313-4.423,3.608-4.423c2.328,0,3.491,1.214,3.491,3.808l-0.115,1.298h-5.155c0.017,1.329,0.516,1.994,1.895,1.994
			C135.84,143.794,137.585,143.645,137.585,143.645z M136.124,140.404c0-1.664-0.5-2.212-1.714-2.212
			c-1.23,0-1.779,0.614-1.796,2.212H136.124z"/>
		<path class="st3" d="M146.746,140.918c0,3.442-1.081,4.456-4.058,4.456c-0.881,0-3.043-0.199-3.043-0.199v-11.756h1.796v3.774
			c0,0,1.148-0.499,2.079-0.499C145.782,136.695,146.746,137.808,146.746,140.918z M144.9,140.918c0-1.879-0.482-2.61-1.596-2.61
			c-0.882,0-1.863,0.333-1.863,0.333v5.055c0,0,0.915,0.065,1.247,0.065C144.535,143.761,144.9,142.947,144.9,140.918z"/>
		<path class="st3" d="M154.708,143.23c0.033,0.499,0.249,0.698,0.731,0.765l-0.05,1.38c-1.014,0-1.596-0.133-2.211-0.615
			c0,0-1.33,0.615-2.678,0.615c-1.646,0-2.478-0.914-2.478-2.644c0-1.763,0.965-2.36,2.743-2.511l2.146-0.183v-0.599
			c0-0.915-0.398-1.197-1.214-1.197c-1.114,0-3.126,0.166-3.126,0.166l-0.066-1.28c0,0,1.812-0.433,3.343-0.433
			c2.028,0,2.859,0.849,2.859,2.744V143.23z M148.839,133.203h1.729v1.896h-1.729V133.203z M150.984,141.5
			c-0.766,0.066-1.146,0.433-1.146,1.181s0.315,1.215,1.014,1.215c0.947,0,2.062-0.366,2.062-0.366v-2.212L150.984,141.5z
			 M152.314,133.203h1.729v1.896h-1.729V133.203z"/>
		<path class="st3" d="M163.819,136.878v8.313h-1.796v-0.516c0,0-1.214,0.698-2.245,0.698c-2.377,0-2.876-1.229-2.876-4.156v-4.34
			h1.812v4.355c0,1.847,0.117,2.527,1.414,2.527c0.998,0,1.896-0.432,1.896-0.432v-6.451H163.819z"/>
		<path class="st3" d="M172.795,145.192H171v-0.433c0,0-1.215,0.615-2.229,0.615c-2.128,0-3.143-1.113-3.143-4.323
			c0-3.01,1.081-4.356,3.459-4.356c0.665,0,1.796,0.199,1.896,0.217v-3.492h1.812V145.192z M170.984,143.347v-4.923
			c-0.1-0.017-1.064-0.167-1.763-0.167c-1.23,0-1.763,0.898-1.763,2.794c0,2.129,0.582,2.71,1.596,2.71
			C170.002,143.761,170.984,143.347,170.984,143.347z"/>
		<path class="st3" d="M181.374,143.645l0.033,1.348c0,0-1.895,0.382-3.358,0.382c-2.494,0-3.459-1.329-3.459-4.257
			c0-3.043,1.313-4.423,3.608-4.423c2.328,0,3.492,1.214,3.492,3.808l-0.116,1.298h-5.155c0.017,1.329,0.516,1.994,1.896,1.994
			C179.627,143.794,181.374,143.645,181.374,143.645z M179.911,140.404c0-1.664-0.499-2.212-1.713-2.212
			c-1.23,0-1.779,0.614-1.796,2.212H179.911z"/>
		<path class="st3" d="M193.926,136.878v8.313h-1.796v-0.516c0,0-1.214,0.698-2.245,0.698c-2.378,0-2.877-1.229-2.877-4.156v-4.34
			h1.812v4.355c0,1.847,0.116,2.527,1.413,2.527c0.998,0,1.896-0.432,1.896-0.432v-6.451H193.926z"/>
		<path class="st3" d="M196.119,145.192v-8.313h1.796v0.516c0,0,1.214-0.699,2.295-0.699c2.311,0,2.876,1.313,2.876,4.041v4.456
			h-1.796v-4.407c0-1.661-0.216-2.477-1.479-2.477c-0.964,0-1.879,0.432-1.879,0.432v6.452H196.119z"/>
		<path class="st3" d="M211.98,145.192h-1.796v-0.433c0,0-1.214,0.615-2.228,0.615c-2.129,0-3.144-1.113-3.144-4.323
			c0-3.01,1.081-4.356,3.459-4.356c0.665,0,1.796,0.199,1.896,0.217v-3.492h1.812V145.192z M210.167,143.347v-4.923
			c-0.1-0.017-1.064-0.167-1.763-0.167c-1.23,0-1.763,0.898-1.763,2.794c0,2.129,0.583,2.71,1.597,2.71
			C209.187,143.761,210.167,143.347,210.167,143.347z"/>
		<path class="st3" d="M223.201,145.275c-0.216,0.066-0.648,0.1-1.014,0.1c-3.575,0-4.64-1.961-4.64-5.819
			c0-3.808,1.081-5.937,4.64-5.937c3.558,0,4.622,2.111,4.622,5.937c0,2.578-0.482,4.224-1.812,5.105l1.396,2.245l-1.712,0.798
			L223.201,145.275z M224.897,139.555c0-2.827-0.516-4.323-2.71-4.323c-2.195,0-2.728,1.496-2.728,4.323
			c0,2.86,0.516,4.206,2.728,4.206C224.398,143.761,224.897,142.465,224.897,139.555z"/>
		<path class="st3" d="M235.57,136.878v8.313h-1.796v-0.516c0,0-1.214,0.698-2.245,0.698c-2.378,0-2.877-1.229-2.877-4.156v-4.34
			h1.812v4.355c0,1.847,0.117,2.527,1.413,2.527c0.998,0,1.896-0.432,1.896-0.432v-6.451H235.57z"/>
		<path class="st3" d="M243.915,143.23c0.033,0.499,0.25,0.698,0.732,0.765l-0.05,1.38c-1.015,0-1.597-0.133-2.212-0.615
			c0,0-1.33,0.615-2.678,0.615c-1.646,0-2.478-0.914-2.478-2.644c0-1.763,0.965-2.36,2.744-2.511l2.146-0.183v-0.599
			c0-0.915-0.399-1.197-1.215-1.197c-1.113,0-3.126,0.166-3.126,0.166l-0.066-1.28c0,0,1.812-0.433,3.343-0.433
			c2.028,0,2.859,0.849,2.859,2.744V143.23z M240.19,141.5c-0.765,0.066-1.147,0.433-1.147,1.181s0.316,1.215,1.015,1.215
			c0.947,0,2.062-0.366,2.062-0.366v-2.212L240.19,141.5z"/>
		<path class="st3" d="M246.191,136.878h1.796v0.998c0,0,1.413-0.915,2.826-1.182v1.812c-1.513,0.3-2.811,0.882-2.811,0.882v5.804
			h-1.812V136.878z"/>
		<path class="st3" d="M254.371,138.424v3.658c0,1.247,0.05,1.679,0.915,1.679c0.465,0,1.363-0.049,1.363-0.049l0.083,1.446
			c0,0-1.114,0.216-1.696,0.216c-1.879,0-2.461-0.698-2.461-3.092v-3.858h-1.064v-1.546h1.064v-2.411h1.796v2.411h2.295v1.546
			H254.371z"/>
		<path class="st3" d="M258.31,133.551h1.812v1.913h-1.812V133.551z M258.31,136.878h1.812v8.313h-1.812V136.878z"/>
		<path class="st3" d="M268.702,143.645l0.033,1.348c0,0-1.896,0.382-3.359,0.382c-2.494,0-3.458-1.329-3.458-4.257
			c0-3.043,1.313-4.423,3.608-4.423c2.327,0,3.492,1.214,3.492,3.808l-0.117,1.298h-5.154c0.017,1.329,0.516,1.994,1.896,1.994
			C266.956,143.794,268.702,143.645,268.702,143.645z M267.239,140.404c0-1.664-0.499-2.212-1.713-2.212
			c-1.231,0-1.779,0.614-1.796,2.212H267.239z"/>
		<path class="st3" d="M270.761,136.878h1.796v0.998c0,0,1.414-0.915,2.827-1.182v1.812c-1.513,0.3-2.811,0.882-2.811,0.882v5.804
			h-1.812V136.878z"/>
		<path class="st3" d="M283.149,143.645l0.033,1.348c0,0-1.896,0.382-3.359,0.382c-2.494,0-3.458-1.329-3.458-4.257
			c0-3.043,1.313-4.423,3.607-4.423c2.328,0,3.492,1.214,3.492,3.808l-0.116,1.298h-5.155c0.017,1.329,0.516,1.994,1.896,1.994
			C281.403,143.794,283.149,143.645,283.149,143.645z M281.685,140.404c0-1.664-0.499-2.212-1.713-2.212
			c-1.23,0-1.779,0.614-1.796,2.212H281.685z"/>
	</g>
</g>
<g id="hilfslinien">
</g>
</svg>
